<?xml version="1.0" standalone="no"?>
<!DOCTYPE svg PUBLIC "-//W3C//DTD SVG 20010904//EN"
 "http://www.w3.org/TR/2001/REC-SVG-20010904/DTD/svg10.dtd">
<svg version="1.0" xmlns="http://www.w3.org/2000/svg"
 width="301.000000pt" height="301.000000pt" viewBox="0 0 301.000000 301.000000"
 preserveAspectRatio="xMidYMid meet">
<metadata>
Created by potrace 1.11, written by Peter Selinger 2001-2013
</metadata>
<g transform="translate(0.000000,301.000000) scale(0.100000,-0.100000)"
fill="#000000" stroke="none">
<path d="M1326 3000 c-341 -43 -635 -188 -882 -434 -220 -221 -349 -459 -416
-770 -32 -146 -32 -436 0 -582 67 -311 196 -549 416 -770 221 -220 460 -349
770 -416 146 -31 436 -31 582 0 310 67 549 196 770 416 220 221 349 459 416
770 32 146 32 436 0 582 -67 311 -196 549 -416 770 -221 221 -466 353 -770
415 -114 23 -357 33 -470 19z m76 -600 c1 -159 2 -307 3 -327 l0 -38 -100 -3
c-154 -4 -145 -11 -145 117 0 59 -3 142 -6 184 l-7 76 -66 -34 c-184 -93 -364
-263 -463 -435 -203 -357 -124 -845 185 -1136 93 -88 305 -224 348 -224 17 0
3 861 -14 872 -7 4 -74 8 -149 8 l-138 0 0 93 0 92 280 -3 280 -3 0 -664 c0
-556 -2 -665 -14 -665 -44 0 -205 36 -293 65 -189 63 -332 146 -461 269 -171
163 -269 344 -323 598 -18 83 -22 138 -23 278 0 158 2 185 27 283 60 238 168
433 321 574 77 72 219 164 311 202 120 50 331 104 428 110 16 1 17 -20 19
-289z m388 263 c169 -34 311 -90 443 -176 236 -154 387 -376 464 -684 25 -98
27 -125 27 -283 -1 -140 -5 -195 -23 -278 -54 -253 -150 -432 -322 -598 -126
-120 -273 -206 -462 -269 -88 -29 -249 -65 -293 -65 -12 0 -14 109 -14 665 l0
664 280 3 280 3 0 -92 0 -93 -137 0 c-76 0 -143 -4 -150 -8 -17 -11 -31 -872
-14 -872 43 0 255 136 348 224 281 265 374 689 229 1045 -81 199 -291 417
-507 526 l-66 34 -7 -67 c-3 -37 -6 -120 -6 -184 0 -139 10 -130 -145 -126
l-100 3 1 38 c0 20 1 168 2 328 l2 290 48 -6 c26 -4 81 -14 122 -22z"/>
</g>
</svg>
